<?xml version="1.0" encoding="UTF-8"?>
<svg id="Layer_1" xmlns="http://www.w3.org/2000/svg" version="1.1" viewBox="0 0 1741.02 310.22">
  <!-- Generator: Adobe Illustrator 29.6.1, SVG Export Plug-In . SVG Version: 2.1.1 Build 9)  -->
  <rect x="272.01" y="68.65" width="67.67" height="172.35"/>
  <path d="M1191.19,241h67.74l-53.54-172.35h-93.96l-53.54,172.35h67.74l3.62-12.14h58.32l3.62,12.14ZM1143.9,179.71l14.51-48.67,14.51,48.67h-29.02Z"/>
  <polygon points="427.06 182.88 427.06 68.64 359.39 68.64 359.39 241 368.34 241 427.06 241 507.47 241 507.47 182.88 427.06 182.88"/>
  <polygon points="873.21 68.64 825.37 68.64 757.71 68.64 709.87 68.64 709.87 126.77 757.71 126.77 757.71 241 825.37 241 825.37 126.77 873.21 126.77 873.21 68.64"/>
  <path d="M251.4,103.5c-6.05-10.74-14.38-19.23-25-25.48-9.12-5.37-18.96-8.42-29.52-9.18v-.19h-105.27v172.35h67.67v-35.46h1.8v.25s28.24,0,28.24,0c2.03,0,4.04-.09,6.02-.25h1.54v-.14c9.6-.97,18.68-3.8,27.24-8.51,10.78-5.93,19.41-14.06,25.9-24.4,6.49-10.34,9.86-21.67,10.1-34.01.24-12.58-2.66-24.24-8.71-34.98ZM159.27,153.5v-31.25h18.39c4.57,0,8.41,1.7,11.54,5.11,3.13,3.41,4.45,7.43,3.97,12.08-.4,4.01-2.18,7.35-5.35,10.04-3.17,2.69-6.83,4.03-11,4.03h-17.55Z"/>
  <path d="M558.61,75.56c14.7-7.65,31.43-11.48,50.18-11.48s35.47,3.83,50.18,11.48c14.7,7.65,26.14,18.37,34.32,32.15,8.17,13.78,12.26,29.49,12.26,47.12s-4.09,33.33-12.26,47.12c-8.17,13.78-19.61,24.5-34.32,32.15-14.7,7.65-31.43,11.48-50.18,11.48s-35.48-3.83-50.18-11.48c-14.7-7.65-26.14-18.37-34.31-32.15-8.17-13.78-12.26-29.49-12.26-47.12s4.09-33.33,12.26-47.12c8.17-13.78,19.61-24.5,34.31-32.15ZM590.28,173.87c5.13,5.25,11.3,7.87,18.51,7.87s13.38-2.62,18.51-7.87c5.13-5.25,7.69-11.6,7.69-19.05s-2.46-14.2-7.39-19.29c-4.93-5.09-11.2-7.63-18.81-7.63s-13.88,2.55-18.81,7.63c-4.93,5.09-7.39,11.52-7.39,19.29s2.56,13.8,7.69,19.05Z"/>
  <path d="M1049.41,173.27c-5.13-8.45-12.14-14.6-21.03-18.45-.64-.32-1-.84-1.08-1.56-.08-.72.2-1.24.84-1.56,6.97-4.41,12.4-10.3,16.29-17.67,3.89-7.37,5.51-15.34,4.87-23.92-.48-6.33-2.46-12.16-5.95-17.49-3.49-5.33-7.99-9.8-13.52-13.4-2.16-1.44-4.25-2.64-6.25-3.61-3.05-1.36-5.21-2.24-6.49-2.64-2.08-.72-4.33-1.32-6.73-1.8-2.81-.56-5.13-1-6.97-1.32-2.25-.32-4.57-.56-6.97-.72-.8,0-1.98-.04-3.55-.12-1.56-.08-2.75-.16-3.55-.24-1.6-.08-3.97-.12-7.09-.12h-98.08v172.35h112.38c15.54,0,28.93-3.79,40.14-11.36,11.22-7.57,17.47-17.09,18.75-28.55,1.12-10.1-.88-19.37-6.01-27.82ZM951.18,119.61h32.12c1.92,0,3.56.68,4.93,2.04,1.36,1.36,2.04,3,2.04,4.93v.72c0,1.92-.68,3.55-2.04,4.87-1.36,1.32-3,1.98-4.93,1.98h-37.14v-14.54h5.02ZM990.28,183.19c0,1.92-.68,3.55-2.04,4.87-1.36,1.32-3,1.98-4.93,1.98h-37.14v-14.54h37.14c1.92,0,3.56.68,4.93,2.04,1.36,1.36,2.04,3.01,2.04,4.93v.72Z"/>
  <path d="M1407.37,65.44c-39.7,0-71.99,32.3-71.99,71.99v34.59c0,4.66-3.79,8.45-8.45,8.45s-8.45-3.79-8.45-8.45v-34.62h-63.54v34.62c0,39.7,32.3,71.99,71.99,71.99s71.99-32.3,71.99-71.99v-34.59c0-4.66,3.79-8.45,8.45-8.45s8.45,3.79,8.45,8.45v35.83h63.54v-35.83c0-39.7-32.3-71.99-71.99-71.99Z"/>
  <polygon points="1649.28 120.69 1649.28 68.64 1561.18 68.64 1522.92 68.64 1493.51 68.64 1493.51 241 1522.92 241 1561.18 241 1649.28 241 1649.28 188.96 1561.18 188.96 1561.18 174.65 1649.28 174.65 1649.28 135.23 1561.18 135.23 1561.18 120.69 1649.28 120.69"/>
</svg>