<?xml version="1.0" encoding="UTF-8"?>
<svg id="Layer_1" xmlns="http://www.w3.org/2000/svg" version="1.1" viewBox="0 0 533.08 402.07">
  <!-- Generator: Adobe Illustrator 29.6.1, SVG Export Plug-In . SVG Version: 2.1.1 Build 9)  -->
  <defs>
    <style>
      .st0 {
        fill: #fd7030;
      }

      .st1 {
        fill: #f6ac4e;
      }

      .st2 {
        fill: #f48222;
      }
    </style>
  </defs>
  <path class="st2" d="M185.59,338.1c-56.39,0-102.26-45.87-102.26-102.26v-69.67h42.62v69.67c0,32.88,26.75,59.64,59.64,59.64s59.64-26.75,59.64-59.64v-69.61c0-56.39,45.88-102.26,102.26-102.26s102.26,45.88,102.26,102.26v72.1h-42.62v-72.1c0-32.88-26.75-59.64-59.64-59.64s-59.64,26.75-59.64,59.64v69.61c0,56.39-45.88,102.26-102.26,102.26Z"/>
  <path class="st1" d="M185.59,295.48c32.88,0,59.64-26.75,59.64-59.64v-69.61c0-56.39,45.88-102.26,102.26-102.26s102.26,45.88,102.26,102.26v72.1h42.62v-72.1c0-79.89-65-144.89-144.89-144.89s-144.89,65-144.89,144.89v69.61c0,9.38-7.63,17.01-17.01,17.01s-17.01-7.63-17.01-17.01v-69.67h-42.62v69.67c0,32.88,26.75,59.64,59.64,59.64Z"/>
  <path class="st0" d="M364.5,166.23v72.1h42.62v-72.1c0-32.88-26.75-59.64-59.64-59.64s-59.64,26.75-59.64,59.64v69.61c0,56.39-45.88,102.26-102.26,102.26s-102.26-45.87-102.26-102.26v-69.67h-42.62v69.67c0,79.89,65,144.89,144.89,144.89s144.89-65,144.89-144.89v-69.61c0-9.38,7.63-17.01,17.01-17.01s17.01,7.63,17.01,17.01Z"/>
</svg>